PathFileType	4	(X/Y/Z)	Patient4_TMGait_0pt3_03_right_01.trc.trc
DataRate	CameraRate	NumFrames	NumMarkers	Units	OrigDataRate	OrigDataStartFrame	OrigNumFrames
56.000000000000	56.000000000000	4	33	mm	56.000000000000	89	       141
Frame#	Time	Sacral			L.Shoulder			Chest			R.Shoulder			Neck			R.ASIS			L.ASIS			R.Thigh.Superior			R.Thigh.Lateral			R.Thigh.Inferior			R.Patella			L.Thigh.Superior			L.Thigh.Lateral			L.Thigh.Inferior			L.Patella			L.Shank.Superior			L.Shank.Lateral			L.Shank.Inferior			R.Shank.Superior			R.Shank.Lateral			R.Shank.Inferior			R.Heel			R.Midfoot.Superior			R.Midfoot.Lateral			R.Toe			L.Heel			L.Midfoot.Lateral			L.Midfoot.Superior			L.Toe			L.Elbow			L.Wrist			R.Elbow			R.Wrist			
		X1	Y1	Z1	X2	Y2	Z2	X3	Y3	Z3	X4	Y4	Z4	X5	Y5	Z5	X6	Y6	Z6	X7	Y7	Z7	X8	Y8	Z8	X9	Y9	Z9	X10	Y10	Z10	X11	Y11	Z11	X12	Y12	Z12	X13	Y13	Z13	X14	Y14	Z14	X15	Y15	Z15	X16	Y16	Z16	X17	Y17	Z17	X18	Y18	Z18	X19	Y19	Z19	X20	Y20	Z20	X21	Y21	Z21	X22	Y22	Z22	X23	Y23	Z23	X24	Y24	Z24	X25	Y25	Z25	X26	Y26	Z26	X27	Y27	Z27	X28	Y28	Z28	X29	Y29	Z29	X30	Y30	Z30	X31	Y31	Z31	X32	Y32	Z32	X33	Y33	Z33	

89	3.411428571429	794.628042759963	1009.386843557080	454.156590640072	962.542364902933	1423.356049514016	243.465652787893	1086.408253391720	1350.929073590442	387.386369860982	1037.729485597772	1435.145610961362	568.629854541169	976.448599583035	1488.875123019090	398.517853657671	1030.839135431917	927.184365871525	542.800357068859	988.108119019747	954.159412643504	273.163102386989	1024.329708913136	714.103066611167	519.000323134815	926.684530715437	621.610522391433	590.945238797193	982.699696414108	552.209159573654	508.193479216884	959.821051068765	455.308851779579	522.675176091839	1057.807322753071	758.644075287981	315.971772567460	988.940529575999	630.720724373969	252.994019561472	1082.270537682927	564.531233813348	318.720239768376	1091.329374641055	491.391745466527	325.744022548687	1060.293853621977	417.239208590282	317.325069708081	969.373548425287	306.707378443962	261.387002002492	1012.632504954980	192.614428252764	331.443146949995	892.697472656703	387.008257304965	538.340644570995	789.226614146620	327.428748506871	613.560614208043	782.219844346322	220.029457710269	558.128716578817	587.665121012349	110.547971852425	552.373730713461	769.951577514848	106.581678093505	573.382383115348	669.944402577190	74.559138104169	618.605706018471	866.106619690206	35.992558030130	591.099170717891	876.636306333628	40.031337820714	363.290055781231	953.899534765012	36.587219592123	286.277917470855	1037.374156392800	96.684882672551	317.126265554298	1165.729707056467	41.391505308706	292.843817755218	852.226209334150	1085.332083296503	144.803246077215	913.236773251177	829.797964267007	141.127738243225	1140.299970427458	1092.555879849476	642.852494579506	1333.745976197961	1056.730738446701	482.324651663764	
90	3.429285714286	795.095900953049	1009.720752470035	449.798418045840	964.093264843498	1424.401898678067	240.921615889206	1087.071161348708	1351.601330530214	385.388534583889	1037.310117794266	1435.328402974891	566.613393197381	977.005865310906	1489.503623991921	396.279857230092	1030.880951501828	927.562961380210	539.383153201603	989.312284713910	954.758757258489	269.662108204763	1026.031477606113	714.732939505066	515.856131194955	929.189065068610	621.763767040085	587.841882732780	986.106624319300	552.357609124406	505.358029070567	963.655354165477	454.495716769487	520.942148267812	1057.688252437502	757.967893583699	312.356621471845	987.542701991344	630.357579928376	250.385303895098	1080.262396412555	563.664945792276	316.370101956355	1088.738104780570	490.530342742447	323.768264552480	1057.200255572454	416.480871539500	315.711736749858	965.603102258829	306.273159309480	260.237074914039	1007.920656021003	192.266351458642	330.918969948477	895.151791780567	387.276778347259	536.702658275024	790.269424831755	330.030604245315	611.601025197190	782.018193200418	222.114960165046	557.216184410816	585.558896276866	116.837828387312	551.644924604214	767.654002927616	107.592914520953	573.253962946624	666.561835294422	78.634821541679	618.127614982752	861.056800371563	35.786283183248	591.086985473431	871.233702007779	40.061793919040	363.282969306227	948.476355725245	36.549642052751	286.260661424414	1031.971497184063	96.626264495038	317.031848985777	1160.312874713597	41.270890072165	292.768089803011	859.116653901856	1085.297833725362	138.658976232330	925.112016047625	831.080843328361	133.084893210213	1134.047522788803	1090.367371523608	643.240314318069	1328.135996213888	1031.215899820372	488.655591934989	
91	3.447142857143	795.431730779270	1009.840726585458	445.534675438210	965.533580130266	1425.288185015448	238.554468045813	1087.587380007018	1352.109255960072	383.577002394031	1036.708428951936	1435.243882799389	564.809146494897	977.471200749168	1489.957127521671	394.217276379108	1030.824199778602	927.769900031166	535.972512397356	990.361280414737	955.290531265792	266.218404866713	1028.313182525803	715.325887244489	512.541578023135	932.704120793899	621.584826521450	584.589778622477	990.673432639548	552.367868219189	502.246716180377	968.808178556951	453.400352159188	518.972761695527	1057.534597304533	757.241084929632	308.691352275866	986.177931836606	629.941246176034	247.754272417445	1078.326713578182	562.781324709101	313.972516221421	1086.243973405202	489.638848786872	321.729367198529	1054.195142249172	415.680855485426	314.060717666312	961.898718526689	305.813297801057	259.044034803147	1003.247236963476	191.888362556871	330.367219837197	898.793161166785	387.308961589523	534.848717247320	792.396457317877	332.767991262873	609.452147281796	782.614647144511	224.371749559337	556.188050520641	584.132984628421	124.093960842050	550.766161763745	765.755396465371	108.899145689802	573.072033567048	663.580543032346	83.440745336481	617.548422121180	856.042185636710	35.428093007343	591.085037055268	865.825114806640	40.091882051510	363.264840907853	943.050273294074	36.508461096243	286.234393678344	1026.573245608973	96.560006130761	316.931367239377	1154.900960627276	41.127655833916	292.703202413043	866.671980009519	1084.985124598261	132.751273404948	937.009629575436	832.056046353970	125.415526049864	1127.163868608761	1087.978101592438	644.119473171831	1319.761898428677	1005.345211379548	496.791050738501	
92	3.465000000000	795.636913346456	1009.708951058695	441.377038818968	966.868119194091	1425.972711903061	236.374949330983	1087.960003671169	1352.407625196229	381.962842051586	1035.929152655465	1434.835857365738	563.228793009694	977.837407269517	1490.192536702876	392.348850968612	1030.684090588681	927.768839188268	532.574257236519	991.258901892604	955.712169018763	262.841396424652	1031.194960331538	715.871856830872	509.049948893459	937.261055559656	621.076273145652	581.202322039451	996.413557309653	552.247660605377	498.862025546360	975.297512203583	452.053993619762	516.741148100217	1057.392570163746	756.455799398293	305.021151422346	984.939351149626	629.439113779488	245.130192300271	1076.566202594160	561.866679828650	311.572373797323	1083.965872899901	488.686712564053	319.665578414544	1051.373116653461	414.805873818201	312.407443451056	958.331609085689	305.322702646637	257.835225911915	998.650232580030	191.465726667305	329.805503298336	903.658922193931	387.113740954208	532.757337981243	795.663490438676	335.663400030471	607.093618193255	784.044950138957	226.850637786248	555.019179023426	583.504465607008	132.421551245112	549.671557292612	764.284845694874	110.591121723672	572.803967052721	661.071351840532	89.088128981922	616.816104234744	851.054244881178	34.887727124840	591.082091245066	860.418488271441	40.122696123872	363.236432126683	937.629012879050	36.467665456744	286.201443434191	1021.184792246643	96.489873837118	316.830491103041	1149.500263535826	40.968537408902	292.647985331338	874.870472304232	1084.407024113119	127.100877569014	948.915810848574	832.698980238170	118.203086828949	1119.591710246055	1085.363790531028	645.449087196993	1308.442745594866	979.544896995328	506.626105693856	
